<mxfile host="65bd71144e">
    <diagram name="Страница 1" id="5Q1sN1JS-lWK7QPDGiFl">
        <mxGraphModel dx="1138" dy="634" grid="1" gridSize="10" guides="1" tooltips="1" connect="1" arrows="1" fold="1" page="1" pageScale="1" pageWidth="827" pageHeight="1169" math="0" shadow="0">
            <root>
                <mxCell id="0"/>
                <mxCell id="1" parent="0"/>
                <mxCell id="ARfDHnbhjZwTY0l6dXyu-11" value="" style="edgeStyle=orthogonalEdgeStyle;rounded=0;orthogonalLoop=1;jettySize=auto;html=1;" parent="1" source="ARfDHnbhjZwTY0l6dXyu-1" edge="1">
                    <mxGeometry relative="1" as="geometry">
                        <mxPoint x="240" y="200" as="targetPoint"/>
                    </mxGeometry>
                </mxCell>
                <mxCell id="ARfDHnbhjZwTY0l6dXyu-1" value="Начало" style="ellipse;whiteSpace=wrap;html=1;" parent="1" vertex="1">
                    <mxGeometry x="165" y="70" width="150" height="90" as="geometry"/>
                </mxCell>
                <mxCell id="ARfDHnbhjZwTY0l6dXyu-2" value="Конец" style="ellipse;whiteSpace=wrap;html=1;" parent="1" vertex="1">
                    <mxGeometry x="170" y="1540" width="150" height="90" as="geometry"/>
                </mxCell>
                <mxCell id="ARfDHnbhjZwTY0l6dXyu-10" value="" style="edgeStyle=orthogonalEdgeStyle;rounded=0;orthogonalLoop=1;jettySize=auto;html=1;" parent="1" target="ARfDHnbhjZwTY0l6dXyu-5" edge="1">
                    <mxGeometry relative="1" as="geometry">
                        <mxPoint x="240" y="290" as="sourcePoint"/>
                    </mxGeometry>
                </mxCell>
                <mxCell id="ARfDHnbhjZwTY0l6dXyu-6" style="edgeStyle=orthogonalEdgeStyle;rounded=0;orthogonalLoop=1;jettySize=auto;html=1;entryX=0.006;entryY=0.411;entryDx=0;entryDy=0;entryPerimeter=0;" parent="1" source="ARfDHnbhjZwTY0l6dXyu-4" target="ARfDHnbhjZwTY0l6dXyu-5" edge="1">
                    <mxGeometry relative="1" as="geometry">
                        <mxPoint x="100" y="370" as="targetPoint"/>
                        <Array as="points">
                            <mxPoint x="80" y="535"/>
                            <mxPoint x="80" y="367"/>
                        </Array>
                    </mxGeometry>
                </mxCell>
                <mxCell id="ARfDHnbhjZwTY0l6dXyu-4" value="Проверка на не нулевое значение&lt;br&gt;size&amp;lt;=0" style="rhombus;whiteSpace=wrap;html=1;" parent="1" vertex="1">
                    <mxGeometry x="155" y="450" width="170" height="170" as="geometry"/>
                </mxCell>
                <mxCell id="ARfDHnbhjZwTY0l6dXyu-9" value="" style="edgeStyle=orthogonalEdgeStyle;rounded=0;orthogonalLoop=1;jettySize=auto;html=1;" parent="1" source="ARfDHnbhjZwTY0l6dXyu-5" target="ARfDHnbhjZwTY0l6dXyu-4" edge="1">
                    <mxGeometry relative="1" as="geometry"/>
                </mxCell>
                <mxCell id="ARfDHnbhjZwTY0l6dXyu-5" value="Вывод на экран сообщения &quot;введите значение Size целое положительное число&quot;" style="rounded=1;whiteSpace=wrap;html=1;" parent="1" vertex="1">
                    <mxGeometry x="150" y="330" width="180" height="90" as="geometry"/>
                </mxCell>
                <mxCell id="ARfDHnbhjZwTY0l6dXyu-7" value="" style="endArrow=classic;html=1;rounded=0;" parent="1" edge="1">
                    <mxGeometry width="50" height="50" relative="1" as="geometry">
                        <mxPoint x="240" y="620" as="sourcePoint"/>
                        <mxPoint x="240" y="670" as="targetPoint"/>
                    </mxGeometry>
                </mxCell>
                <mxCell id="ARfDHnbhjZwTY0l6dXyu-8" value="Да" style="text;html=1;strokeColor=none;fillColor=none;align=center;verticalAlign=middle;whiteSpace=wrap;rounded=0;" parent="1" vertex="1">
                    <mxGeometry x="90" y="500" width="60" height="30" as="geometry"/>
                </mxCell>
                <mxCell id="ARfDHnbhjZwTY0l6dXyu-13" value="Создание переменной&lt;br style=&quot;border-color: var(--border-color);&quot;&gt;int Size;" style="rounded=0;whiteSpace=wrap;html=1;" parent="1" vertex="1">
                    <mxGeometry x="160" y="200" width="160" height="90" as="geometry"/>
                </mxCell>
                <mxCell id="Ja42zUwm9ALjJapP7Coj-5" value="" style="edgeStyle=orthogonalEdgeStyle;rounded=0;orthogonalLoop=1;jettySize=auto;html=1;" parent="1" source="ARfDHnbhjZwTY0l6dXyu-14" target="Ja42zUwm9ALjJapP7Coj-3" edge="1">
                    <mxGeometry relative="1" as="geometry"/>
                </mxCell>
                <mxCell id="ARfDHnbhjZwTY0l6dXyu-14" value="Создание одномерного массива строк размерностью Size" style="rounded=0;whiteSpace=wrap;html=1;" parent="1" vertex="1">
                    <mxGeometry x="160" y="670" width="160" height="90" as="geometry"/>
                </mxCell>
                <mxCell id="ARfDHnbhjZwTY0l6dXyu-15" value="нет" style="text;html=1;strokeColor=none;fillColor=none;align=center;verticalAlign=middle;whiteSpace=wrap;rounded=0;" parent="1" vertex="1">
                    <mxGeometry x="230" y="620" width="60" height="30" as="geometry"/>
                </mxCell>
                <mxCell id="Ja42zUwm9ALjJapP7Coj-18" style="edgeStyle=orthogonalEdgeStyle;rounded=0;orthogonalLoop=1;jettySize=auto;html=1;exitX=0.5;exitY=0;exitDx=0;exitDy=0;" parent="1" source="Ja42zUwm9ALjJapP7Coj-1" edge="1">
                    <mxGeometry relative="1" as="geometry">
                        <mxPoint x="350" y="1030" as="targetPoint"/>
                        <Array as="points">
                            <mxPoint x="630" y="900"/>
                            <mxPoint x="350" y="900"/>
                        </Array>
                    </mxGeometry>
                </mxCell>
                <mxCell id="Ja42zUwm9ALjJapP7Coj-20" style="edgeStyle=orthogonalEdgeStyle;rounded=0;orthogonalLoop=1;jettySize=auto;html=1;exitX=0.5;exitY=1;exitDx=0;exitDy=0;entryX=1;entryY=0.5;entryDx=0;entryDy=0;" parent="1" source="Ja42zUwm9ALjJapP7Coj-1" target="Ja42zUwm9ALjJapP7Coj-10" edge="1">
                    <mxGeometry relative="1" as="geometry">
                        <mxPoint x="430" y="1110" as="targetPoint"/>
                        <Array as="points">
                            <mxPoint x="630" y="1170"/>
                        </Array>
                    </mxGeometry>
                </mxCell>
                <mxCell id="Ja42zUwm9ALjJapP7Coj-1" value="Проверка на пустое значение или 0" style="rhombus;whiteSpace=wrap;html=1;" parent="1" vertex="1">
                    <mxGeometry x="560" y="975" width="140" height="120" as="geometry"/>
                </mxCell>
                <mxCell id="Ja42zUwm9ALjJapP7Coj-9" value="" style="edgeStyle=orthogonalEdgeStyle;rounded=0;orthogonalLoop=1;jettySize=auto;html=1;" parent="1" source="Ja42zUwm9ALjJapP7Coj-3" target="Ja42zUwm9ALjJapP7Coj-7" edge="1">
                    <mxGeometry relative="1" as="geometry"/>
                </mxCell>
                <mxCell id="Ja42zUwm9ALjJapP7Coj-3" value="Заполнение массива&lt;br&gt;int i=0;" style="rounded=0;whiteSpace=wrap;html=1;" parent="1" vertex="1">
                    <mxGeometry x="160" y="810" width="160" height="90" as="geometry"/>
                </mxCell>
                <mxCell id="Ja42zUwm9ALjJapP7Coj-14" value="" style="edgeStyle=orthogonalEdgeStyle;rounded=0;orthogonalLoop=1;jettySize=auto;html=1;" parent="1" source="Ja42zUwm9ALjJapP7Coj-7" edge="1">
                    <mxGeometry relative="1" as="geometry">
                        <mxPoint x="380" y="1035" as="targetPoint"/>
                    </mxGeometry>
                </mxCell>
                <mxCell id="Ja42zUwm9ALjJapP7Coj-24" value="" style="edgeStyle=orthogonalEdgeStyle;rounded=0;orthogonalLoop=1;jettySize=auto;html=1;" parent="1" source="Ja42zUwm9ALjJapP7Coj-7" target="Ja42zUwm9ALjJapP7Coj-23" edge="1">
                    <mxGeometry relative="1" as="geometry"/>
                </mxCell>
                <mxCell id="Ja42zUwm9ALjJapP7Coj-7" value="i&amp;lt;size" style="rhombus;whiteSpace=wrap;html=1;" parent="1" vertex="1">
                    <mxGeometry x="155" y="950" width="170" height="170" as="geometry"/>
                </mxCell>
                <mxCell id="Ja42zUwm9ALjJapP7Coj-16" style="edgeStyle=orthogonalEdgeStyle;rounded=0;orthogonalLoop=1;jettySize=auto;html=1;exitX=0;exitY=0.5;exitDx=0;exitDy=0;" parent="1" source="Ja42zUwm9ALjJapP7Coj-10" edge="1">
                    <mxGeometry relative="1" as="geometry">
                        <mxPoint x="240" y="920" as="targetPoint"/>
                        <Array as="points">
                            <mxPoint x="100" y="1170"/>
                            <mxPoint x="100" y="920"/>
                        </Array>
                    </mxGeometry>
                </mxCell>
                <mxCell id="5" style="edgeStyle=none;html=1;" edge="1" parent="1" source="Ja42zUwm9ALjJapP7Coj-10">
                    <mxGeometry relative="1" as="geometry">
                        <mxPoint x="100" y="1170" as="targetPoint"/>
                    </mxGeometry>
                </mxCell>
                <mxCell id="Ja42zUwm9ALjJapP7Coj-10" value="&lt;div style=&quot;background-color: rgb(31, 31, 31); font-family: Consolas, &amp;quot;Courier New&amp;quot;, monospace; font-size: 14px; line-height: 19px;&quot;&gt;&lt;font color=&quot;#9cdcfe&quot;&gt;Вввод значения в массив&lt;/font&gt;&lt;/div&gt;" style="whiteSpace=wrap;html=1;" parent="1" vertex="1">
                    <mxGeometry x="370" y="1140" width="120" height="60" as="geometry"/>
                </mxCell>
                <mxCell id="Ja42zUwm9ALjJapP7Coj-17" style="edgeStyle=orthogonalEdgeStyle;rounded=0;orthogonalLoop=1;jettySize=auto;html=1;exitX=1;exitY=0.5;exitDx=0;exitDy=0;" parent="1" source="Ja42zUwm9ALjJapP7Coj-15" target="Ja42zUwm9ALjJapP7Coj-1" edge="1">
                    <mxGeometry relative="1" as="geometry"/>
                </mxCell>
                <mxCell id="Ja42zUwm9ALjJapP7Coj-15" value="Ввод строки&lt;br&gt;string&amp;nbsp; input" style="shape=parallelogram;perimeter=parallelogramPerimeter;whiteSpace=wrap;html=1;fixedSize=1;" parent="1" vertex="1">
                    <mxGeometry x="370" y="1005" width="120" height="60" as="geometry"/>
                </mxCell>
                <mxCell id="Ja42zUwm9ALjJapP7Coj-19" value="да" style="text;html=1;align=center;verticalAlign=middle;resizable=0;points=[];autosize=1;strokeColor=none;fillColor=none;" parent="1" vertex="1">
                    <mxGeometry x="570" y="870" width="40" height="30" as="geometry"/>
                </mxCell>
                <mxCell id="Ja42zUwm9ALjJapP7Coj-21" value="Text" style="text;html=1;strokeColor=none;fillColor=none;align=center;verticalAlign=middle;whiteSpace=wrap;rounded=0;" parent="1" vertex="1">
                    <mxGeometry x="380" y="1000" width="60" height="30" as="geometry"/>
                </mxCell>
                <mxCell id="Ja42zUwm9ALjJapP7Coj-22" value="Нет" style="text;html=1;align=center;verticalAlign=middle;resizable=0;points=[];autosize=1;strokeColor=none;fillColor=none;" parent="1" vertex="1">
                    <mxGeometry x="520" y="1070" width="40" height="30" as="geometry"/>
                </mxCell>
                <mxCell id="Ja42zUwm9ALjJapP7Coj-26" value="" style="edgeStyle=orthogonalEdgeStyle;rounded=0;orthogonalLoop=1;jettySize=auto;html=1;" parent="1" source="Ja42zUwm9ALjJapP7Coj-23" edge="1">
                    <mxGeometry relative="1" as="geometry">
                        <mxPoint x="240.090909090909" y="1350.0779220779223" as="targetPoint"/>
                    </mxGeometry>
                </mxCell>
                <mxCell id="Ja42zUwm9ALjJapP7Coj-23" value="Вызов Метода&amp;nbsp;&lt;br&gt;&lt;div&gt;&amp;nbsp;FilterAndPrintShortStrings&lt;/div&gt;" style="whiteSpace=wrap;html=1;" parent="1" vertex="1">
                    <mxGeometry x="165" y="1255" width="150" height="65" as="geometry"/>
                </mxCell>
                <mxCell id="Ja42zUwm9ALjJapP7Coj-31" value="" style="edgeStyle=orthogonalEdgeStyle;rounded=0;orthogonalLoop=1;jettySize=auto;html=1;" parent="1" target="Ja42zUwm9ALjJapP7Coj-27" edge="1">
                    <mxGeometry relative="1" as="geometry">
                        <mxPoint x="310" y="1410" as="sourcePoint"/>
                        <Array as="points">
                            <mxPoint x="310" y="1420"/>
                        </Array>
                    </mxGeometry>
                </mxCell>
                <mxCell id="Ja42zUwm9ALjJapP7Coj-27" value="Вывод на экран&lt;br&gt;счетчик +1" style="whiteSpace=wrap;html=1;" parent="1" vertex="1">
                    <mxGeometry x="490" y="1387.5" width="150" height="65" as="geometry"/>
                </mxCell>
                <mxCell id="Ja42zUwm9ALjJapP7Coj-32" value="да" style="text;html=1;strokeColor=none;fillColor=none;align=center;verticalAlign=middle;whiteSpace=wrap;rounded=0;" parent="1" vertex="1">
                    <mxGeometry x="300" y="1377.5" width="60" height="30" as="geometry"/>
                </mxCell>
                <mxCell id="Ja42zUwm9ALjJapP7Coj-34" value="нет" style="text;html=1;strokeColor=none;fillColor=none;align=center;verticalAlign=middle;whiteSpace=wrap;rounded=0;" parent="1" vertex="1">
                    <mxGeometry x="250" y="1490" width="60" height="30" as="geometry"/>
                </mxCell>
                <mxCell id="4" value="Длина строки &amp;lt;=3?" style="rhombus;whiteSpace=wrap;html=1;" parent="1" vertex="1">
                    <mxGeometry x="150" y="1350" width="180" height="140" as="geometry"/>
                </mxCell>
            </root>
        </mxGraphModel>
    </diagram>
</mxfile>